<?xml version="1.0" encoding="UTF-8" standalone="no"?>
<!-- Created with Inkscape (http://www.inkscape.org/) -->

<svg
   xmlns:dc="http://purl.org/dc/elements/1.1/"
   xmlns:cc="http://creativecommons.org/ns#"
   xmlns:rdf="http://www.w3.org/1999/02/22-rdf-syntax-ns#"
   xmlns:svg="http://www.w3.org/2000/svg"
   xmlns="http://www.w3.org/2000/svg"
   xmlns:sodipodi="http://sodipodi.sourceforge.net/DTD/sodipodi-0.dtd"
   xmlns:inkscape="http://www.inkscape.org/namespaces/inkscape"
   id="svg2"
   version="1.1"
   inkscape:version="0.48.3.1 r9886"
   width="1250"
   height="1250"
   xml:space="preserve"
   sodipodi:docname="mapka_okolie_PriF.svg"><metadata
     id="metadata8"><rdf:RDF><cc:Work
         rdf:about=""><dc:format>image/svg+xml</dc:format><dc:type
           rdf:resource="http://purl.org/dc/dcmitype/StillImage" /><dc:title></dc:title></cc:Work></rdf:RDF></metadata><defs
     id="defs6"><marker
       inkscape:stockid="Arrow2Mend"
       orient="auto"
       refY="0.0"
       refX="0.0"
       id="Arrow2Mend"
       style="overflow:visible;"><path
         id="path4452"
         style="fill-rule:evenodd;stroke-width:0.62500000;stroke-linejoin:round;"
         d="M 8.7185878,4.0337352 L -2.2072895,0.016013256 L 8.7185884,-4.0017078 C 6.9730900,-1.6296469 6.9831476,1.6157441 8.7185878,4.0337352 z "
         transform="scale(0.6) rotate(180) translate(0,0)" /></marker><marker
       inkscape:stockid="Arrow1Lend"
       orient="auto"
       refY="0.0"
       refX="0.0"
       id="Arrow1Lend"
       style="overflow:visible;"><path
         id="path4428"
         d="M 0.0,0.0 L 5.0,-5.0 L -12.5,0.0 L 5.0,5.0 L 0.0,0.0 z "
         style="fill-rule:evenodd;stroke:#000000;stroke-width:1.0pt;"
         transform="scale(0.8) rotate(180) translate(12.5,0)" /></marker><clipPath
       clipPathUnits="userSpaceOnUse"
       id="clipPath148"><path
         d="m 0,14400 14400,0 L 14400,0 0,0 0,14400 z"
         id="path150" /></clipPath><marker
       inkscape:stockid="Arrow2Mend"
       orient="auto"
       refY="0"
       refX="0"
       id="Arrow2Mend-5"
       style="overflow:visible"><path
         inkscape:connector-curvature="0"
         id="path4452-0"
         style="fill-rule:evenodd;stroke-width:0.625;stroke-linejoin:round"
         d="M 8.7185878,4.0337352 -2.2072895,0.01601326 8.7185884,-4.0017078 c -1.7454984,2.3720609 -1.7354408,5.6174519 -6e-7,8.035443 z"
         transform="scale(-0.6,-0.6)" /></marker><marker
       inkscape:stockid="Arrow2Mend"
       orient="auto"
       refY="0"
       refX="0"
       id="Arrow2Mend-7"
       style="overflow:visible"><path
         inkscape:connector-curvature="0"
         id="path4452-5"
         style="fill-rule:evenodd;stroke-width:0.625;stroke-linejoin:round"
         d="M 8.7185878,4.0337352 -2.2072895,0.01601326 8.7185884,-4.0017078 c -1.7454984,2.3720609 -1.7354408,5.6174519 -6e-7,8.035443 z"
         transform="scale(-0.6,-0.6)" /></marker></defs><sodipodi:namedview
     pagecolor="#ffffff"
     bordercolor="#666666"
     borderopacity="1"
     objecttolerance="10"
     gridtolerance="10"
     guidetolerance="10"
     inkscape:pageopacity="0"
     inkscape:pageshadow="2"
     inkscape:window-width="1600"
     inkscape:window-height="876"
     id="namedview4"
     showgrid="false"
     inkscape:zoom="0.7552"
     inkscape:cx="474.79274"
     inkscape:cy="545.54943"
     inkscape:window-x="0"
     inkscape:window-y="24"
     inkscape:window-maximized="1"
     inkscape:current-layer="g10" /><g
     id="g10"
     inkscape:groupmode="layer"
     inkscape:label="mapka_okolie_PriF"
     transform="matrix(1.25,0,0,-1.25,-8375.625,9624.375)"><g
       id="g12"
       transform="translate(7212.875,7227.917)"><path
         d="m 0,0 -20.375,0 0,-15.375 3.5,0 0,-4.875 -47,0 0,-7.25 37.75,0 0,-12.75 -37.75,0 0,-8.75 27,0 0,-11 -26,0 0,-14.75 26,0 0,8.75 24.75,0 0,17 0,21.5 0,1.75 0,5.5 0,4.875 12.125,0 L 0,0 z"
         style="fill:#7a7b7e;fill-opacity:1;fill-rule:nonzero;stroke:none"
         id="path14" /></g><g
       id="g16"
       transform="translate(7212.875,7227.917)"><path
         d="m 0,0 -20.375,0 0,-15.375 3.5,0 0,-4.875 -47,0 0,-7.25 37.75,0 0,-12.75 -37.75,0 0,-8.75 27,0 0,-11 -26,0 0,-14.75 26,0 0,8.75 24.75,0 0,17 0,21.5 0,1.75 0,5.5 0,4.875 12.125,0 L 0,0 z"
         style="fill:none;stroke:#373535;stroke-opacity:1;stroke-width:1;stroke-linecap:butt;stroke-linejoin:miter;stroke-miterlimit:4;stroke-dasharray:none"
         id="path18" /></g><g
       id="g20"
       transform="translate(7178.5078,7111.0088)"><path
         d="M 0,0 0.009,14.665 9.675,14.657 9.668,-0.01 0,0 z"
         style="fill:#7a7b7e;fill-opacity:1;fill-rule:nonzero;stroke:none"
         id="path22" /></g><g
       id="g24"
       transform="translate(7178.5078,7111.0088)"><path
         d="M 0,0 0.009,14.665 9.675,14.657 9.668,-0.01 0,0 z"
         style="fill:none;stroke:#373535;stroke-opacity:1;stroke-width:1;stroke-linecap:butt;stroke-linejoin:miter;stroke-miterlimit:4;stroke-dasharray:none"
         id="path26" /></g><g
       id="g28"
       transform="translate(7208.2051,7111.0088)"><path
         d="M 0,0 0.009,14.665 9.675,14.657 9.668,-0.01 0,0 z"
         style="fill:#7a7b7e;fill-opacity:1;fill-rule:nonzero;stroke:none"
         id="path30" /></g><g
       id="g32"
       transform="translate(7208.2051,7111.0088)"><path
         d="M 0,0 0.009,14.665 9.675,14.657 9.668,-0.01 0,0 z"
         style="fill:none;stroke:#373535;stroke-opacity:1;stroke-width:1;stroke-linecap:butt;stroke-linejoin:miter;stroke-miterlimit:4;stroke-dasharray:none"
         id="path34" /></g><g
       id="g36"
       transform="translate(7259.084,7225.667)"><path
         d="m 0,0 -13.001,0 0,28.334 13.001,0 0,-8.667 -4.334,0 0,-9.083 4.334,0 L 0,0 z m 0,-18 -6.334,0 0,-7.333 6.334,0 0,-8.333 -13.001,0 0,26.666 L 0,-7 0,-18 z m 21.25,28.584 0,9.083 -15.584,0 0,8.667 10,0 0,7 -28.667,0 0,18 -6.333,0 0,-92.667 3.667,0 0,-1 28.333,0 0,6.667 -7,0 0,8.333 14.667,0 0,7.333 -14.667,0 0,11 6,0 0,7 -6,0 0,10.584 15.584,0 z"
         style="fill:#7a7b7e;fill-opacity:1;fill-rule:nonzero;stroke:none"
         id="path38" /></g><g
       id="g40"
       transform="translate(7259.084,7225.667)"><path
         d="m 0,0 -13.001,0 0,28.334 13.001,0 0,-8.667 -4.334,0 0,-9.083 4.334,0 L 0,0 z m 0,-18 -6.334,0 0,-7.333 6.334,0 0,-8.333 -13.001,0 0,26.666 L 0,-7 0,-18 z m 21.25,28.584 0,9.083 -15.584,0 0,8.667 10,0 0,7 -28.667,0 0,18 -6.333,0 0,-92.667 3.667,0 0,-1 28.333,0 0,6.667 -7,0 0,8.333 14.667,0 0,7.333 -14.667,0 0,11 6,0 0,7 -6,0 0,10.584 15.584,0 z"
         style="fill:none;stroke:#373535;stroke-opacity:1;stroke-width:1;stroke-linecap:butt;stroke-linejoin:miter;stroke-miterlimit:4;stroke-dasharray:none"
         id="path42" /></g><g
       id="g44"
       transform="translate(7140.25,7461.417)"><path
         d="m 0,0 7.5,2.25 1.75,0 3.25,-6.5 7.75,3.25 -1.5,5.75 3.75,1.5 0,6.25 2.625,2.625 0,6.875 2.188,2.188 -1.063,8.062 -6.5,-2.25 -3.25,0 0,4.75 3,3 -2.25,7 L 9.5,43 l -4,0 0,5.5 -8,-1.25 -2.75,0 -2,6.75 -8.25,-2.5 -3.75,6.75 -8,-2 -4,6.25 -7.5,-1.75 2.25,-6.5 -5.25,-2.25 2,-6.5 6.25,1.75 0,6.75 6.25,0 4,-9.75 L -15.5,36.5 -7.75,13.25 -2.5,15.5 2.75,10.25 -1.625,5.875 0,0 z"
         style="fill:#7a7b7e;fill-opacity:1;fill-rule:nonzero;stroke:none"
         id="path46" /></g><g
       id="g48"
       transform="translate(7140.25,7461.417)"><path
         d="m 0,0 7.5,2.25 1.75,0 3.25,-6.5 7.75,3.25 -1.5,5.75 3.75,1.5 0,6.25 2.625,2.625 0,6.875 2.188,2.188 -1.063,8.062 -6.5,-2.25 -3.25,0 0,4.75 3,3 -2.25,7 L 9.5,43 l -4,0 0,5.5 -8,-1.25 -2.75,0 -2,6.75 -8.25,-2.5 -3.75,6.75 -8,-2 -4,6.25 -7.5,-1.75 2.25,-6.5 -5.25,-2.25 2,-6.5 6.25,1.75 0,6.75 6.25,0 4,-9.75 L -15.5,36.5 -7.75,13.25 -2.5,15.5 2.75,10.25 -1.625,5.875 0,0 z"
         style="fill:none;stroke:#373535;stroke-opacity:1;stroke-width:1;stroke-linecap:butt;stroke-linejoin:miter;stroke-miterlimit:4;stroke-dasharray:none"
         id="path50" /></g><g
       id="g52"
       transform="matrix(0.83529161,0,0,0.83529161,7095.2399,7452.2916)"
       style="fill:#000000;fill-opacity:0.5098038;stroke:#000000;stroke-width:0.69532603;stroke-miterlimit:4;stroke-opacity:1;stroke-dasharray:none"><path
         d="m 0,0 -5.81,-1.499 -7.053,27.355 5.809,1.499 L 0,0 z"
         style="fill:#000000;fill-opacity:0.5098038;fill-rule:nonzero;stroke:#000000;stroke-width:0.69532603;stroke-miterlimit:4;stroke-opacity:1;stroke-dasharray:none"
         id="path54"
         inkscape:connector-curvature="0" /></g><g
       id="g64"
       transform="translate(7081.4462,7473.0735)"
       style="fill:#000000;fill-opacity:0.5098038;stroke:#000000;stroke-width:0.5808;stroke-miterlimit:4;stroke-opacity:1;stroke-dasharray:none"><path
         d="m 0,0 -5.557,-1.479 -5.47,20.534 5.556,1.479 L 0,0 z"
         style="fill:#000000;fill-opacity:0.5098038;stroke:#000000;stroke-width:0.5808;stroke-linecap:butt;stroke-linejoin:miter;stroke-miterlimit:4;stroke-opacity:1;stroke-dasharray:none"
         id="path66"
         inkscape:connector-curvature="0" /></g><g
       id="g68"
       transform="translate(7038,7462.3335)"><path
         d="m 0,0 14.063,-24.792 -18.751,-11 -14,22.5 4.25,2.813 L -3,-28.417 7.313,-22.542 -3.938,-2.542 0,0 z"
         style="fill:#7a7b7e;fill-opacity:1;fill-rule:nonzero;stroke:none"
         id="path70" /></g><g
       id="g72"
       transform="translate(7038,7462.3335)"><path
         d="m 0,0 14.063,-24.792 -18.751,-11 -14,22.5 4.25,2.813 L -3,-28.417 7.313,-22.542 -3.938,-2.542 0,0 z"
         style="fill:none;stroke:#373535;stroke-opacity:1;stroke-width:1;stroke-linecap:butt;stroke-linejoin:miter;stroke-miterlimit:4;stroke-dasharray:none"
         id="path74" /></g><g
       id="g76"
       transform="translate(7051,7419.917)"><path
         d="M 0,0 2.625,-5.25 -6.5,-9.875 -9.625,-3.5 l -5.625,-3.125 11,-23.125 5.125,2.25 -3,7.625 9.875,5.125 4.834,-8.167 5.332,2.834 L 5.084,3.083 0,0 z"
         style="fill:#7a7b7e;fill-opacity:1;fill-rule:nonzero;stroke:none"
         id="path78" /></g><g
       id="g80"
       transform="translate(7051,7419.917)"><path
         d="M 0,0 2.625,-5.25 -6.5,-9.875 -9.625,-3.5 l -5.625,-3.125 11,-23.125 5.125,2.25 -3,7.625 9.875,5.125 4.834,-8.167 5.332,2.834 L 5.084,3.083 0,0 z"
         style="fill:none;stroke:#373535;stroke-opacity:1;stroke-width:1;stroke-linecap:butt;stroke-linejoin:miter;stroke-miterlimit:4;stroke-dasharray:none"
         id="path82" /></g><g
       id="g84"
       transform="translate(6992.4297,7494.9233)"><path
         d="M 0,0 11.01,-24.34 34.82,-14.756 23.645,9.558 17.193,6.858 24.32,-10.006 13.99,-13.869 6.213,2.969 0,0 z"
         style="fill:#7a7b7e;fill-opacity:1;fill-rule:nonzero;stroke:none"
         id="path86" /></g><g
       id="g88"
       transform="translate(6992.4297,7494.9233)"><path
         d="M 0,0 11.01,-24.34 34.82,-14.756 23.645,9.558 17.193,6.858 24.32,-10.006 13.99,-13.869 6.213,2.969 0,0 z"
         style="fill:none;stroke:#373535;stroke-opacity:1;stroke-width:1;stroke-linecap:butt;stroke-linejoin:miter;stroke-miterlimit:4;stroke-dasharray:none"
         id="path90" /></g><g
       id="g92"
       transform="translate(7170.7197,7018.4531)"><path
         d="M 0,0 -7.312,2.57 2.311,29.928 9.622,27.356 0,0 z"
         style="fill:#7a7b7e;fill-opacity:1;fill-rule:nonzero;stroke:none"
         id="path94" /></g><g
       id="g96"
       transform="translate(7170.7197,7018.4531)"><path
         d="M 0,0 -7.312,2.57 2.311,29.928 9.622,27.356 0,0 z"
         style="fill:none;stroke:#373535;stroke-opacity:1;stroke-width:1;stroke-linecap:butt;stroke-linejoin:miter;stroke-miterlimit:4;stroke-dasharray:none"
         id="path98" /></g><g
       id="g100"
       transform="translate(7188.7197,6992.7031)"><path
         d="M 0,0 -7.312,2.57 2.311,29.928 9.622,27.356 0,0 z"
         style="fill:#7a7b7e;fill-opacity:1;fill-rule:nonzero;stroke:none"
         id="path102" /></g><g
       id="g104"
       transform="translate(7188.7197,6992.7031)"><path
         d="M 0,0 -7.312,2.57 2.311,29.928 9.622,27.356 0,0 z"
         style="fill:none;stroke:#373535;stroke-opacity:1;stroke-width:1;stroke-linecap:butt;stroke-linejoin:miter;stroke-miterlimit:4;stroke-dasharray:none"
         id="path106" /></g><g
       id="g108"
       transform="translate(7185.5459,7020.2383)"><path
         d="M 0,0 -11.112,3.82 -5.342,20.607 5.771,16.787 0,0 z"
         style="fill:#7a7b7e;fill-opacity:1;fill-rule:nonzero;stroke:none"
         id="path110" /></g><g
       id="g112"
       transform="translate(7185.5459,7020.2383)"><path
         d="M 0,0 -11.112,3.82 -5.342,20.607 5.771,16.787 0,0 z"
         style="fill:none;stroke:#373535;stroke-opacity:1;stroke-width:1;stroke-linecap:butt;stroke-linejoin:miter;stroke-miterlimit:4;stroke-dasharray:none"
         id="path114" /></g><path
       d="m 7215.083,6940 -4,0 0,10.666 4,0 0,-10.666 z"
       style="fill:#7a7b7e;fill-opacity:1;fill-rule:nonzero;stroke:#373535;stroke-opacity:1;stroke-width:1;stroke-linecap:butt;stroke-linejoin:miter;stroke-miterlimit:4;stroke-dasharray:none"
       id="path116" /><path
       d="m 7217.417,6953.333 -5,0 0,10.333 5,0 0,-10.333 z"
       style="fill:#7a7b7e;fill-opacity:1;fill-rule:nonzero;stroke:#373535;stroke-opacity:1;stroke-width:1;stroke-linecap:butt;stroke-linejoin:miter;stroke-miterlimit:4;stroke-dasharray:none"
       id="path118" /><path
       d="m 7232.75,7090.167 -9,0 0,12.75 9,0 0,-12.75 z m -15,22 -9,0 0,12.75 9,0 0,-12.75 z m -15,-22 -9,0 0,12.75 9,0 0,-12.75 z m -15,22 -9,0 0,12.75 9,0 0,-12.75 z m -15.25,-21 -9,0 0,12.75 9,0 0,-12.75 z m 49.5,18.5 0,20.25 -16.5,0 0,-20.25 -13.75,0 0,20.25 -16.75,0 0,-20.25 -15,0 0,-24.25 17,0 0,18.75 13.75,0 0,-18.75 16,0 0,18.75 13.5,0 0,-18.75 16,0 0,24.25 -14.25,0 z"
       style="fill:#7a7b7e;fill-opacity:1;fill-rule:nonzero;stroke:none"
       id="path120" /><path
       d="m 7232.75,7090.167 -9,0 0,12.75 9,0 0,-12.75 z m -15,22 -9,0 0,12.75 9,0 0,-12.75 z m -15,-22 -9,0 0,12.75 9,0 0,-12.75 z m -15,22 -9,0 0,12.75 9,0 0,-12.75 z m -15.25,-21 -9,0 0,12.75 9,0 0,-12.75 z m 49.5,18.5 0,20.25 -16.5,0 0,-20.25 -13.75,0 0,20.25 -16.75,0 0,-20.25 -15,0 0,-24.25 17,0 0,18.75 13.75,0 0,-18.75 16,0 0,18.75 13.5,0 0,-18.75 16,0 0,24.25 -14.25,0 z"
       style="fill:none;stroke:#373535;stroke-opacity:1;stroke-width:1;stroke-linecap:butt;stroke-linejoin:miter;stroke-miterlimit:4;stroke-dasharray:none"
       id="path122" /><g
       id="g124"
       transform="translate(7186.416,7379.5049)"><path
         d="M 0,0 -39.923,30.102 -22.664,52.991 17.259,22.889 0,0 z"
         style="fill:#7a7b7e;fill-opacity:1;fill-rule:nonzero;stroke:none"
         id="path126" /></g><g
       id="g128"
       transform="translate(7186.416,7379.5049)"><path
         d="M 0,0 -39.923,30.102 -22.664,52.991 17.259,22.889 0,0 z"
         style="fill:none;stroke:#373535;stroke-opacity:1;stroke-width:1;stroke-linecap:butt;stroke-linejoin:miter;stroke-miterlimit:4;stroke-dasharray:none"
         id="path130" /></g><g
       id="g132"
       transform="translate(7231.501,7339.356)"><path
         d="M 0,0 -13.063,11.894 -1.168,24.956 11.895,13.063 0,0 z"
         style="fill:#7a7b7e;fill-opacity:1;fill-rule:nonzero;stroke:none"
         id="path134" /></g><g
       id="g136"
       transform="translate(7231.501,7339.356)"><path
         d="M 0,0 -13.063,11.894 -1.168,24.956 11.895,13.063 0,0 z"
         style="fill:none;stroke:#373535;stroke-opacity:1;stroke-width:1;stroke-linecap:butt;stroke-linejoin:miter;stroke-miterlimit:4;stroke-dasharray:none"
         id="path138" /></g><g
       id="g140"
       transform="translate(7119.0332,7452.9976)"
       style="fill:#000000;fill-opacity:0.18721461"><path
         d="M 0,0 -14.543,-4.835 -17.377,6.706 -2.834,11.542 0,0 z"
         style="fill:#000000;fill-opacity:0.18721461;fill-rule:nonzero;stroke:none"
         id="path142" /></g><text
       y="-7452.6484"
       x="7107.3013"
       transform="scale(1,-1)"
       id="text152"><tspan
         style="font-size:10px;font-variant:normal;font-weight:normal;font-stretch:normal;writing-mode:lr-tb;fill:#373535;fill-opacity:1;fill-rule:nonzero;stroke:none;font-family:Myriad Pro;-inkscape-font-specification:MyriadPro-Regular"
         x="7107.3013"
         y="-7452.6484"
         id="tspan154">P</tspan></text>
<text
       y="-7420"
       x="7102.897"
       transform="scale(1,-1)"
       id="text156"><tspan
         style="font-size:7px;font-variant:normal;font-weight:normal;font-stretch:normal;writing-mode:lr-tb;fill:#373535;fill-opacity:1;fill-rule:nonzero;stroke:none;font-family:Myriad Pro;-inkscape-font-specification:MyriadPro-Regular"
         x="7102.897 7108.5249 7113.0889"
         y="-7420"
         sodipodi:role="line"
         id="tspan158">MHD</tspan><tspan
         style="font-size:7px;font-variant:normal;font-weight:normal;font-stretch:normal;writing-mode:lr-tb;fill:#373535;fill-opacity:1;fill-rule:nonzero;stroke:none;font-family:Myriad Pro;-inkscape-font-specification:MyriadPro-Regular"
         x="7076.1152 7079.5659 7081.2178 7084.5361 7087.9028 7089.541 7092.6768 7094.3149 7097.8218 7099.3062 7103.1631 7107.1108 7110.9541 7112.606 7114.2441"
         y="-7411.6001"
         sodipodi:role="line"
         id="tspan160">Slávičie údolie</tspan></text>
<g
       id="g162"
       transform="translate(7021.75,7061.917)"><path
         d="m 0,0 190.5,0 c 0,0 96.5,13.75 124.5,-73.25 8,-17 28.5,-27 38,-35 l 9.5,-8 26,-20.5"
         style="fill:none;stroke:#373535;stroke-width:3;stroke-linecap:butt;stroke-linejoin:miter;stroke-miterlimit:4;stroke-opacity:1;stroke-dasharray:none"
         id="path164"
         inkscape:connector-curvature="0" /></g><g
       id="g166"
       transform="translate(7303.4336,6850.5576)"><path
         d="m 0,0 c 0,0 4.98,25.441 12.313,83.441 7.333,58 9.335,219.334 9.335,219.334 l 0,284 0.665,44.005 -5.334,28.667 -11.333,38"
         style="fill:none;stroke:#373535;stroke-width:3;stroke-linecap:butt;stroke-linejoin:miter;stroke-miterlimit:4;stroke-opacity:1;stroke-dasharray:none"
         id="path168"
         inkscape:connector-curvature="0" /></g><g
       id="g170"
       transform="translate(7325.417,7257.667)"><path
         d="M 0,0 -21.333,10.666 -42,26 l -31,25 -38.333,38.333 -35,29 c 0,0 -33.334,19.667 -36.834,30.917 -3.5,11.25 -5,38.5 30.5,51.5 15.75,4.25 16.021,27.25 21.772,51.5"
         style="fill:none;stroke:#373535;stroke-width:3;stroke-linecap:butt;stroke-linejoin:miter;stroke-miterlimit:4;stroke-opacity:1;stroke-dasharray:none"
         id="path172"
         inkscape:connector-curvature="0" /></g><g
       id="g174"
       transform="translate(7197.417,7061.5)"><path
         d="M 0,0 -1,-7.334 12.166,-17.5 -5,-64.5"
         style="fill:none;stroke:#7c7d80;stroke-width:2;stroke-linecap:butt;stroke-linejoin:miter;stroke-miterlimit:4;stroke-opacity:1;stroke-dasharray:none"
         id="path176"
         inkscape:connector-curvature="0" /></g><g
       id="g178"
       transform="translate(7209.583,7044)"><path
         d="M 0,0 9.167,12.166 18.334,12.5 22,30 l 5,4.166 4.167,11 2.167,20.834 -0.5,2.666 -18,0.5"
         style="fill:none;stroke:#7c7d80;stroke-width:2;stroke-linecap:butt;stroke-linejoin:miter;stroke-miterlimit:4;stroke-opacity:1;stroke-dasharray:none"
         id="path180"
         inkscape:connector-curvature="0" /></g><g
       id="g182"
       transform="translate(7271.084,7112.166)"><path
         d="m 0,0 -38.334,26.251 5,9.25 0,134.25 1.25,3.5 -15,24.75 -20.25,26.5 -27.75,25.75 -17,16.5 -26.5,25.75 -7.25,12.5 -5.25,8.25 -3.75,13.25 6,10.75 6.75,10.5 8.75,-2 9.25,2.25"
         style="fill:none;stroke:#7c7d80;stroke-width:2;stroke-linecap:butt;stroke-linejoin:miter;stroke-miterlimit:4;stroke-opacity:1;stroke-dasharray:none"
         id="path184"
         inkscape:connector-curvature="0" /></g><g
       id="g186"
       transform="translate(7113.75,7463.167)"><path
         d="m 0,0 8,0 7.25,-3.25 c 0,0 2.05,5.191 0,11.661 -2.05,6.47 -8.52,22.524 -22.178,26.598 -13.658,4.074 -24.201,13.179 -39.057,9.585 L -60.842,41"
         style="fill:none;stroke:#7c7d80;stroke-width:2;stroke-linecap:butt;stroke-linejoin:miter;stroke-miterlimit:4;stroke-opacity:1;stroke-dasharray:none"
         id="path188"
         inkscape:connector-curvature="0" /></g><g
       id="g190"
       transform="translate(7116.25,7438.667)"><path
         d="M 0,0 -12.75,1.25 -20,26.5"
         style="fill:none;stroke:#7c7d80;stroke-width:2;stroke-linecap:butt;stroke-linejoin:miter;stroke-miterlimit:4;stroke-opacity:1;stroke-dasharray:none"
         id="path192"
         inkscape:connector-curvature="0" /></g><g
       id="g194"
       transform="translate(7017.75,7473.3335)"><path
         d="M 0,0 4.667,-12 19,-3 l 16.667,-23 12.667,-2.667 8.666,-2 14.667,-6.666 6,-3.667 8.083,7.583"
         style="fill:none;stroke:#7c7d80;stroke-width:2;stroke-linecap:butt;stroke-linejoin:miter;stroke-miterlimit:4;stroke-opacity:1;stroke-dasharray:none"
         id="path196"
         inkscape:connector-curvature="0" /></g><g
       id="g198"
       transform="translate(7057.584,7446)"><path
         d="M 0,0 0.5,-9.333 -12.167,-16 l 2,-7.333"
         style="fill:none;stroke:#7c7d80;stroke-width:2;stroke-linecap:butt;stroke-linejoin:miter;stroke-miterlimit:4;stroke-opacity:1;stroke-dasharray:none"
         id="path200"
         inkscape:connector-curvature="0" /></g><g
       id="g202"
       transform="translate(7233.25,7138.167)"><path
         d="M 0,0 -10.75,7.5 -12,92.75"
         style="fill:none;stroke:#7c7d80;stroke-width:2;stroke-linecap:butt;stroke-linejoin:miter;stroke-miterlimit:4;stroke-opacity:1;stroke-dasharray:none"
         id="path204"
         inkscape:connector-curvature="0" /></g><g
       id="g206"
       transform="translate(7237,7184.167)"><path
         d="M 0,0 -14.75,-0.5"
         style="fill:none;stroke:#7c7d80;stroke-width:2;stroke-linecap:butt;stroke-linejoin:miter;stroke-miterlimit:4;stroke-opacity:1;stroke-dasharray:none"
         id="path208"
         inkscape:connector-curvature="0" /></g><g
       id="g210"
       transform="translate(7222.5,7145.667)"><path
         d="m 0,0 -6.25,-2.5 -33.25,0 0.25,15 0,-22.5"
         style="fill:none;stroke:#7c7d80;stroke-width:2;stroke-linecap:butt;stroke-linejoin:miter;stroke-miterlimit:4;stroke-opacity:1;stroke-dasharray:none"
         id="path212"
         inkscape:connector-curvature="0" /></g><g
       id="g214"
       transform="translate(7196.417,7054.166)"><path
         d="m 0,0 -5.417,-10.249 -8.5,-0.75"
         style="fill:none;stroke:#7c7d80;stroke-width:2;stroke-linecap:butt;stroke-linejoin:miter;stroke-miterlimit:4;stroke-opacity:1;stroke-dasharray:none"
         id="path216"
         inkscape:connector-curvature="0" /></g><g
       id="g218"
       transform="translate(7210.625,7044.042)"><path
         d="m 0,0 24.75,-11.75 -23.5,-52.625 2.375,-7.75 1.5,-4 -3.5,-2.25"
         style="fill:none;stroke:#7c7d80;stroke-width:2;stroke-linecap:butt;stroke-linejoin:miter;stroke-miterlimit:4;stroke-opacity:1;stroke-dasharray:none"
         id="path220"
         inkscape:connector-curvature="0" /></g><g
       id="g222"
       transform="translate(7240.0957,7059.583)"><path
         d="m 0,0 -5.857,0 c -0.039,0 -0.072,0.032 -0.072,0.073 l 0,5.858 L 0,6.001 c 0.041,0 0.073,-0.032 0.073,-0.07 l 0,-5.858 C 0.073,0.032 0.041,0 0,0"
         style="fill:#989a9c;fill-opacity:1;fill-rule:nonzero;stroke:none"
         id="path224"
         inkscape:connector-curvature="0" /></g><path
       d="m 7239.667,7065.084 -5,0 0,-5 5,0 0,5 z m 0.429,1 c 0.315,0 0.571,-0.256 0.571,-0.571 l 0,-5.858 c 0,-0.315 -0.256,-0.571 -0.571,-0.571 l -5.858,0 c -0.315,0 -0.571,0.256 -0.571,0.571 l 0,5.858 c 0,0.315 0.256,0.571 0.571,0.571 l 5.858,0"
       style="fill:#373535;fill-opacity:1;fill-rule:nonzero;stroke:none"
       id="path226"
       inkscape:connector-curvature="0" /><g
       id="g228"
       transform="translate(7381.1787,6956.667)"><path
         d="m 0,0 -5.858,0 c -0.039,0 -0.07,0.031 -0.07,0.07 l 0,5.858 c 0,0.04 0.031,0.07 0.07,0.07 l 5.858,0 c 0.039,0 0.069,-0.03 0.069,-0.07 l 0,-5.858 C 0.069,0.031 0.039,0 0,0"
         style="fill:#989a9c;fill-opacity:1;fill-rule:nonzero;stroke:none"
         id="path230"
         inkscape:connector-curvature="0" /></g><path
       d="m 7380.75,6962.167 -5,0 0,-5 5,0 0,5 z m 0.429,1 c 0.315,0 0.571,-0.256 0.571,-0.571 l 0,-5.858 c 0,-0.315 -0.256,-0.571 -0.571,-0.571 l -5.858,0 c -0.315,0 -0.571,0.256 -0.571,0.571 l 0,5.858 c 0,0.315 0.256,0.571 0.571,0.571 l 5.858,0"
       style="fill:#373535;fill-opacity:1;fill-rule:nonzero;stroke:none"
       id="path232"
       inkscape:connector-curvature="0" /><g
       id="g234"
       transform="translate(7124.9014,7419.5996)"><path
         d="m 0,0 -5.857,0 c -0.041,0 -0.075,0.034 -0.075,0.072 l 0,5.857 c 0,0.041 0.034,0.072 0.075,0.072 L 0,6.001 0.069,0.072 0,0 z"
         style="fill:#989a9c;fill-opacity:1;fill-rule:nonzero;stroke:none"
         id="path236"
         inkscape:connector-curvature="0" /></g><path
       d="m 7124.471,7425.101 -5,0 0,-5 5,0 0,5 z m 0.429,1 c 0.315,0 0.571,-0.256 0.571,-0.572 l 0,-5.857 c 0,-0.316 -0.256,-0.571 -0.571,-0.571 l -5.857,0 c -0.316,0 -0.572,0.255 -0.572,0.571 l 0,5.857 c 0,0.316 0.256,0.572 0.572,0.572 l 5.857,0"
       style="fill:#373535;fill-opacity:1;fill-rule:nonzero;stroke:none"
       id="path238"
       inkscape:connector-curvature="0" /><g
       id="g244"
       transform="translate(7238.75,7027.167)"
       style="fill:#000000;fill-opacity:0.21568628000000001;stroke-width:0.5344;stroke-miterlimit:4;stroke-dasharray:none"><path
         d="M 0,0 -21.5,-45.75 -17.75,-57 -7,-57.75 21.25,-80.25 22,-87.5 31.25,-93 c 0,0 19,-6.5 22.5,4 3.5,10.5 13.25,49.25 13.25,50.75 0,1.5 -1.25,37.75 -13.75,44.75 -12.5,7 -15,13.5 -49,14.25 C 1,10.25 1,7.5 1,7.5 L 0,0 z"
         style="fill:#000000;stroke:#373535;stroke-width:0.5344;stroke-linecap:butt;stroke-linejoin:miter;stroke-miterlimit:4;stroke-opacity:1;stroke-dasharray:none;fill-opacity:0.21568628000000001"
         id="path246"
         inkscape:connector-curvature="0" /></g><text
       y="-6967.667"
       x="7366.25"
       transform="scale(1,-1)"
       id="text248"><tspan
         style="font-size:8px;font-variant:normal;font-weight:normal;font-stretch:normal;writing-mode:lr-tb;fill:#373535;fill-opacity:1;fill-rule:nonzero;stroke:none;font-family:Myriad Pro;-inkscape-font-specification:MyriadPro-Regular"
         x="7366.25 7372.6821 7377.8979 7383.2261 7384.9219 7388.6982 7392.5542 7397.2178 7399.7939 7403.6499 7408.0898 7411.626 7416.0181 7420.458"
         y="-6967.667"
         sodipodi:role="line"
         id="tspan250">MHD Lafranconi</tspan><tspan
         style="font-size:8px;font-variant:normal;font-weight:normal;font-stretch:normal;writing-mode:lr-tb;fill:#373535;fill-opacity:1;fill-rule:nonzero;stroke:none;font-family:Myriad Pro;-inkscape-font-specification:MyriadPro-Regular"
         x="7237.25 7243.6821 7248.8979 7254.2261 7255.9219 7260.29 7264.6821 7267.3301 7271.186 7275.626 7277.498 7281.082 7284.978"
         y="-7072.667"
         sodipodi:role="line"
         id="tspan252">MHD Botanická</tspan><tspan
         style="font-size:8px;font-variant:normal;font-weight:normal;font-stretch:normal;writing-mode:lr-tb;fill:#373535;fill-opacity:1;fill-rule:nonzero;stroke:none;font-family:Myriad Pro;-inkscape-font-specification:MyriadPro-Regular"
         x="7237.25 7255.9058 7259.3301 7263.186 7267.626 7270.2021 7274.0581 7278.5698"
         y="-7063.0669"
         sodipodi:role="line"
         id="tspan254"> záhrada</tspan><tspan
         style="font-size:8px;font-variant:normal;font-weight:normal;font-stretch:normal;writing-mode:lr-tb;fill:#373535;fill-opacity:1;fill-rule:nonzero;stroke:none;font-family:Myriad Pro;-inkscape-font-specification:MyriadPro-Regular"
         x="7247.25 7251.6182 7256.0098 7258.6582 7262.5142 7266.9541 7268.8262 7272.4102 7276.3062"
         y="-6999.667"
         sodipodi:role="line"
         id="tspan256">Botanická</tspan><tspan
         style="font-size:8px;font-variant:normal;font-weight:normal;font-stretch:normal;writing-mode:lr-tb;fill:#373535;fill-opacity:1;fill-rule:nonzero;stroke:none;font-family:Myriad Pro;-inkscape-font-specification:MyriadPro-Regular"
         x="7247.25 7250.6738 7254.5298 7258.9702 7261.5459 7265.4019 7269.9141 7273.77 7275.4658 7280.6421"
         y="-6990.0669"
         sodipodi:role="line"
         id="tspan258">záhrada UK</tspan><tspan
         style="font-size:8px;font-variant:normal;font-weight:normal;font-stretch:normal;writing-mode:lr-tb;fill:#373535;fill-opacity:1;fill-rule:nonzero;stroke:none;font-family:Myriad Pro;-inkscape-font-specification:MyriadPro-Regular"
         x="7146.7461 7151.21 7153.1221 7154.8179 7160.146 7162.7622 7167.1699 7170.5938 7175.146"
         y="-7007.395"
         sodipodi:role="line"
         id="tspan260">VI Družba</tspan><tspan
         style="font-size:8px;font-variant:normal;font-weight:normal;font-stretch:normal;writing-mode:lr-tb;fill:#373535;fill-opacity:1;fill-rule:nonzero;stroke:none;font-family:Myriad Pro;-inkscape-font-specification:MyriadPro-Regular"
         x="7139.25 7143.8018 7145.6899 7150.082 7153.834 7155.5298 7160.8579"
         y="-7035.9229"
         sodipodi:role="line"
         id="tspan262">blok D1</tspan><tspan
         style="font-size:8px;font-variant:normal;font-weight:normal;font-stretch:normal;writing-mode:lr-tb;fill:#373535;fill-opacity:1;fill-rule:nonzero;stroke:none;font-family:Myriad Pro;-inkscape-font-specification:MyriadPro-Regular"
         x="7181.002 7185.5542 7187.4419 7191.834 7195.5859 7197.2822 7202.6099"
         y="-6984.4268"
         sodipodi:role="line"
         id="tspan264">blok D2</tspan></text>
<text
       y="-7179.167"
       x="7122.416"
       transform="scale(1,-1)"
       id="text266"><tspan
         style="font-size:10px;font-variant:normal;font-weight:normal;font-stretch:normal;writing-mode:lr-tb;fill:#373535;fill-opacity:1;fill-rule:nonzero;stroke:none;font-family:Myriad Pro;-inkscape-font-specification:MyriadPro-Regular"
         x="7122.416 7127.106 7135.146 7140.0161"
         y="-7179.167"
         sodipodi:role="line"
         id="tspan268">FMFI</tspan><tspan
         style="font-size:10px;font-variant:normal;font-weight:normal;font-stretch:normal;writing-mode:lr-tb;fill:#373535;fill-opacity:1;fill-rule:nonzero;stroke:none;font-family:Myriad Pro;-inkscape-font-specification:MyriadPro-Regular"
         x="7227.7461 7232.9058 7236.2158 7238.5562"
         y="-7117.667"
         sodipodi:role="line"
         id="tspan270">PriF</tspan><tspan
         style="font-size:10px;font-variant:normal;font-weight:normal;font-stretch:normal;writing-mode:lr-tb;fill:#373535;fill-opacity:1;fill-rule:nonzero;stroke:none;font-family:Myriad Pro;-inkscape-font-specification:MyriadPro-Regular"
         x="7274.2461 7279.1758 7284.146"
         y="-7219.667"
         sodipodi:role="line"
         id="tspan272">STU</tspan><tspan
         style="font-size:10px;font-variant:normal;font-weight:normal;font-stretch:normal;writing-mode:lr-tb;fill:#373535;fill-opacity:1;fill-rule:nonzero;stroke:none;font-family:Myriad Pro;-inkscape-font-specification:MyriadPro-Regular"
         x="7172.5762 7177.5059 7182.4761"
         y="-7243.667"
         sodipodi:role="line"
         id="tspan274">STU</tspan><tspan
         style="font-size:10px;font-variant:normal;font-weight:normal;font-stretch:normal;writing-mode:lr-tb;fill:#373535;fill-opacity:1;fill-rule:nonzero;stroke:none;font-family:Myriad Pro;-inkscape-font-specification:MyriadPro-Regular"
         x="7134.2461 7140.2661 7143.5762 7146.8862 7149.2261 7154.646 7159.356"
         y="-7519.917"
         sodipodi:role="line"
         id="tspan276">Átriové</tspan><tspan
         style="font-size:10px;font-variant:normal;font-weight:normal;font-stretch:normal;writing-mode:lr-tb;fill:#373535;fill-opacity:1;fill-rule:nonzero;stroke:none;font-family:Myriad Pro;-inkscape-font-specification:MyriadPro-Regular"
         x="7134.2461 7149.0859 7154.7261 7160.2158 7168.5562 7173.376"
         y="-7507.917"
         sodipodi:role="line"
         id="tspan278"> domky</tspan><tspan
         style="font-size:10px;font-variant:normal;font-weight:normal;font-stretch:normal;writing-mode:lr-tb;fill:#373535;fill-opacity:1;fill-rule:nonzero;stroke:none;font-family:Myriad Pro;-inkscape-font-specification:MyriadPro-Regular"
         x="7239.4961 7244.4258 7249.7959"
         y="-7360.167"
         sodipodi:role="line"
         id="tspan280">STV</tspan></text>
<text
       style="font-size:11.99965763px"
       y="-10222.812"
       x="1462.7306"
       transform="matrix(0.81134372,-0.58454827,-0.58461826,-0.81132372,0,0)"
       id="text282"><tspan
         style="font-size:10.00020027px;font-variant:normal;font-weight:normal;font-stretch:normal;writing-mode:lr-tb;fill:#373535;fill-opacity:1;fill-rule:nonzero;stroke:none;font-family:Myriad Pro;-inkscape-font-specification:MyriadPro-Regular"
         x="1462.7306 1469.2708 1474.0908 1476.4509 1481.4611 1484.7711 1487.1111 1491.9313 1494.0513 1499.7313 1505.2415 1510.9316 1513.2716 1517.6918 1523.1819"
         y="-10222.812"
         sodipodi:role="line"
         id="tspan284">Galéria Cubicon</tspan></text>
<g
       id="g298"
       transform="translate(7218.4141,7304.0029)"
       style="fill:#000000;fill-opacity:0.21568628000000001;stroke-width:0.5344;stroke-miterlimit:4;stroke-dasharray:none"><path
         d="m 0,0 -26,36 -28,27.333 -44,34 -54,-64.666 c 0,0 29.333,-65.334 114,-69.334 L 0,0 z"
         style="fill:#000000;stroke:#373535;stroke-width:0.5344;stroke-linecap:butt;stroke-linejoin:miter;stroke-miterlimit:4;stroke-opacity:1;stroke-dasharray:none;fill-opacity:0.21568628000000001"
         id="path300"
         inkscape:connector-curvature="0" /></g><text
       style="font-size:11.99993801px"
       y="6108.3154"
       x="7944.77"
       transform="matrix(0.16216159,0.98675694,0.98676944,-0.16217409,0,0)"
       id="text310"><tspan
         style="font-size:8.00004578px;font-variant:normal;font-weight:normal;font-stretch:normal;writing-mode:lr-tb;fill:#373535;fill-opacity:1;fill-rule:nonzero;stroke:none;font-family:Myriad Pro;-inkscape-font-specification:MyriadPro-Regular"
         x="7944.77 7951.4419 7955.834 7959.002 7961.6499 7963.3457 7967.1221 7970.978 7975.6421 7978.2178 7982.0742 7986.5142 7990.0503 7994.4419 7998.8823"
         y="6108.3154"
         sodipodi:role="line"
         id="tspan312">most Lafranconi</tspan></text>
<text
       style="font-size:12px"
       y="5699.1089"
       x="8245.7637"
       transform="matrix(0.20919957,0.97787297,0.97787297,-0.20919957,0,0)"
       id="text314"><tspan
         style="font-size:8.00001621px;font-variant:normal;font-weight:normal;font-stretch:normal;writing-mode:lr-tb;fill:#373535;fill-opacity:1;fill-rule:nonzero;stroke:none;font-family:Myriad Pro;-inkscape-font-specification:MyriadPro-Regular"
         x="8245.7637 8249.8203 8253.8281 8256.4756 8259.1641 8262.5879 8266.4443 8268.332 8272.2285"
         y="5699.1089"
         sodipodi:role="line"
         id="tspan316">Petržalka</tspan></text>
<text
       style="font-size:11.99974155px"
       y="-9031.9355"
       x="-5358.1548"
       transform="matrix(0.26051611,-0.96552219,-0.96544718,-0.26040359,0,0)"
       id="text322"><tspan
         style="font-size:7.99950552px;font-variant:normal;font-weight:normal;font-stretch:normal;writing-mode:lr-tb;fill:#373535;fill-opacity:1;fill-rule:nonzero;stroke:none;font-family:Myriad Pro;-inkscape-font-specification:MyriadPro-Regular"
         x="-5358.1548 -5353.8188 -5351.1709 -5346.7314"
         y="-9031.9355"
         sodipodi:role="line"
         id="tspan324">Brno</tspan></text>
<text
       y="-6930.8848"
       x="7182.7109"
       transform="scale(1,-1)"
       id="text326"><tspan
         style="font-size:10px;font-variant:normal;font-weight:normal;font-stretch:normal;writing-mode:lr-tb;fill:#373535;fill-opacity:1;fill-rule:nonzero;stroke:none;font-family:Myriad Pro;-inkscape-font-specification:MyriadPro-Regular"
         x="7182.7109 7187.561 7192.271 7197.2808 7202.9209 7206.8809 7211.5708 7216.5811 7218.7007 7224.3408 7229.8311 7238.1709 7242.9907"
         y="-6930.8848"
         sodipodi:role="line"
         id="tspan328">Švédske domky</tspan></text>
<g
       id="g330"
       transform="translate(7222.084,7279.666)"><path
         d="m 0,0 0,-39 -31,0 0,30.333 L 0,0 z"
         style="fill:#7a7b7e;fill-opacity:1;fill-rule:nonzero;stroke:none"
         id="path332"
         inkscape:connector-curvature="0" /></g><g
       id="g334"
       transform="translate(7222.084,7279.666)"><path
         d="m 0,0 0,-39 -31,0 0,30.333 L 0,0 z"
         style="fill:none;stroke:#373535;stroke-width:1;stroke-linecap:butt;stroke-linejoin:miter;stroke-miterlimit:4;stroke-opacity:1;stroke-dasharray:none"
         id="path336"
         inkscape:connector-curvature="0" /></g><text
       xml:space="preserve"
       style="font-size:9.60000038px;font-style:normal;font-weight:normal;line-height:125%;letter-spacing:0px;word-spacing:0px;fill:#000000;fill-opacity:1;stroke:none;font-family:Sans"
       x="6984.1338"
       y="-7520.4746"
       id="text4269"
       sodipodi:linespacing="125%"
       transform="scale(1,-1)"><tspan
         sodipodi:role="line"
         id="tspan4271"
         x="6984.1338"
         y="-7520.4746"></tspan><tspan
         sodipodi:role="line"
         x="6984.1338"
         y="-7508.4746"
         id="tspan4273">Manželáky</tspan></text>
<text
       xml:space="preserve"
       style="font-size:9.60000038px;font-style:normal;font-weight:normal;line-height:125%;letter-spacing:0px;word-spacing:0px;fill:#000000;fill-opacity:1;stroke:none;font-family:Sans"
       x="6995.521"
       y="-7415.8667"
       id="text4275"
       sodipodi:linespacing="125%"
       transform="scale(1,-1)"><tspan
         sodipodi:role="line"
         id="tspan4277"
         x="6995.521"
         y="-7415.8667">Mladosť</tspan></text>
<text
       xml:space="preserve"
       style="font-size:9.60000038px;font-style:normal;font-weight:normal;line-height:125%;letter-spacing:0px;word-spacing:0px;fill:#000000;fill-opacity:1;stroke:none;font-family:Sans"
       x="7053.2808"
       y="-7462.917"
       id="text4279"
       sodipodi:linespacing="125%"
       transform="scale(1,-1)"><tspan
         sodipodi:role="line"
         id="tspan4281"
         x="7053.2808"
         y="-7462.917">Šturák</tspan></text>
<text
       xml:space="preserve"
       style="font-size:6px;font-style:normal;font-weight:normal;line-height:125%;letter-spacing:0px;word-spacing:0px;fill:#000000;fill-opacity:1;stroke:none;font-family:Sans"
       x="8799.6895"
       y="-5377.7788"
       id="text4324"
       sodipodi:linespacing="125%"
       transform="matrix(0.96592583,0.25881905,0.25881905,-0.96592583,0,0)"><tspan
         sodipodi:role="line"
         id="tspan4326"
         x="8799.6895"
         y="-5377.7788"
         style="font-size:8px">UPC</tspan></text>
<path
       transform="matrix(0.96592583,0.25881905,0.25881905,-0.96592583,0,0)"
       style="fill:#000000;fill-opacity:0.50980380000000003;stroke:#000000;stroke-width:0.5808;stroke-miterlimit:4;stroke-opacity:1;stroke-dasharray:none"
       d="m 8774.3164,-5389.4526 24.0996,0 0,3.84 -24.0996,0 z"
       id="rect4346" /><path
       style="fill:#000000;fill-opacity:0.5098038;stroke:#000000;stroke-width:0.5808;stroke-miterlimit:4;stroke-opacity:1"
       d="m 7092.5944,7488.6536 8.9532,2.399 2.1591,-8.0579 -8.9533,-2.399 z"
       id="rect4348"
       inkscape:connector-curvature="0" /><path
       style="fill:#000000;fill-opacity:0.5098038;stroke:#000000;stroke-width:0.5808;stroke-miterlimit:4;stroke-opacity:1"
       d="m 7095.7843,7476.9279 8.9532,2.399 2.1592,-8.058 -8.9533,-2.399 z"
       id="rect4348-6"
       inkscape:connector-curvature="0" /><text
       xml:space="preserve"
       style="font-size:9.60000038px;font-style:normal;font-weight:normal;line-height:125%;letter-spacing:0px;word-spacing:0px;fill:#000000;fill-opacity:1;stroke:none;font-family:Sans"
       x="8775.585"
       y="-5401.603"
       id="text4279-8"
       sodipodi:linespacing="125%"
       transform="matrix(0.96592583,0.25881905,0.25881905,-0.96592583,0,0)"><tspan
         sodipodi:role="line"
         id="tspan4281-7"
         x="8775.585"
         y="-5401.603"
         style="font-size:8px">Telocvičňa</tspan></text>
<text
       xml:space="preserve"
       style="font-size:32px;font-style:normal;font-weight:normal;line-height:125%;letter-spacing:0px;word-spacing:0px;fill:#000000;fill-opacity:1;stroke:none;font-family:Sans"
       x="7032.3306"
       y="-7067.6602"
       id="text4411"
       sodipodi:linespacing="125%"
       transform="scale(1,-1)"><tspan
         sodipodi:role="line"
         id="tspan4413"
         x="7032.3306"
         y="-7067.6602"
         style="font-size:8.80000019px">Karlova Ves</tspan></text>
<path
       style="fill:none;stroke:#000000;stroke-width:1px;stroke-linecap:butt;stroke-linejoin:miter;stroke-opacity:1;marker-end:url(#Arrow2Mend)"
       d="m 410.57511,786.99112 -10.76765,0.46816"
       id="path4419"
       inkscape:connector-curvature="0"
       transform="matrix(0.8,0,0,-0.8,6700.5,7699.5)" /><path
       style="fill:none;stroke:#000000;stroke-width:0.80000001px;stroke-linecap:butt;stroke-linejoin:miter;stroke-opacity:1;marker-end:url(#Arrow2Mend)"
       d="m 7294.7718,6868.0692 -1.8678,-8.4175"
       id="path4419-0"
       inkscape:connector-curvature="0" /><path
       style="fill:none;stroke:#000000;stroke-width:0.80000001px;stroke-linecap:butt;stroke-linejoin:miter;stroke-opacity:1;marker-end:url(#Arrow2Mend)"
       d="m 7325.0916,7529.8899 -2.5912,8.2236"
       id="path4419-4"
       inkscape:connector-curvature="0"
       inkscape:transform-center-x="2.299197" /><text
       xml:space="preserve"
       style="font-size:32px;font-style:normal;font-weight:normal;line-height:125%;letter-spacing:0px;word-spacing:0px;fill:#000000;fill-opacity:1;stroke:none;font-family:Sans"
       x="7090.3828"
       y="-7320.8398"
       id="text5086"
       sodipodi:linespacing="125%"
       transform="scale(1,-1)"><tspan
         sodipodi:role="line"
         id="tspan5088"
         x="7090.3828"
         y="-7320.8398"
         style="font-size:8.80000019px">Cintorín Slávičie údolie</tspan></text>
<text
       xml:space="preserve"
       style="font-size:32px;font-style:normal;font-weight:normal;line-height:125%;letter-spacing:0px;word-spacing:0px;fill:#000000;fill-opacity:1;stroke:none;font-family:Sans"
       x="7329.7393"
       y="-7173.7036"
       id="text5090"
       sodipodi:linespacing="125%"
       transform="scale(1,-1)"><tspan
         sodipodi:role="line"
         id="tspan5092"
         x="7329.7393"
         y="-7173.7036"
         style="font-size:8.80000019px">D2</tspan></text>
<path
       style="fill:#000000;fill-opacity:0.21568627000000001;stroke:#000000;stroke-width:0.5344;stroke-miterlimit:4;stroke-opacity:1;stroke-dasharray:none"
       d="m 7210.993,7545.5243 c -6.0256,-7.4468 -5.8407,-7.7663 -5.9816,-12.1655 l -1.6864,-52.622 c -0.282,-8.7985 -6.2246,-16.2504 0,-22.475 l 72.8,-72.8 c 1.859,-1.859 4.7213,-3.2451 5.2764,-4.93 l 1.1236,-35.37 c 0.2236,-7.0389 5.6576,-12.7 12.7,-12.7 l 7.525,0 c 7.0424,0 12.725,5.6576 12.725,12.7 l 0,50.975 c 0,2.6012 0.048,5.2958 0.029,7.8676 1.4684,5.3252 0.8218,61.679 -1.7343,67.0412 l -36.8454,77.2943 c -11.2341,0.3156 -49.3089,-1.6021 -65.9313,-2.8156 z"
       id="rect5094"
       inkscape:connector-curvature="0"
       sodipodi:nodetypes="csssscssssscscc" /><text
       xml:space="preserve"
       style="font-size:32px;font-style:normal;font-weight:normal;line-height:125%;letter-spacing:0px;word-spacing:0px;fill:#000000;fill-opacity:1;stroke:none;font-family:Sans"
       x="7259.2939"
       y="-7451.5498"
       id="text5099"
       sodipodi:linespacing="125%"
       transform="scale(1,-1)"><tspan
         sodipodi:role="line"
         id="tspan5101"
         x="7259.2939"
         y="-7451.5498"
         style="font-size:8.80000019px">Zoo</tspan></text>
<g
       id="g5126"
       transform="matrix(0.8253682,0,0,1,1226.2731,23.220668)"><path
         transform="matrix(0.8,0,0,-0.8,6700.5,7699.5)"
         inkscape:connector-curvature="0"
         id="path5106"
         d="m 407.298,1029.0291 c 0,0 134.02482,-23.0768 201.77637,-25.7487 87.57892,-3.45388 175.84789,0.4072 262.63698,12.6403 40.32965,5.6846 118.91229,28.0895 118.91229,28.0895 l 0,0"
         style="fill:none;stroke:#000000;stroke-width:1px;stroke-linecap:butt;stroke-linejoin:miter;stroke-opacity:1"
         sodipodi:nodetypes="csscc" /><path
         inkscape:connector-curvature="0"
         id="path5106-1"
         d="m 7028.9601,6844.0674 c 0,0 107.4549,18.8272 161.7956,20.9735 69.9445,2.7626 140.4304,-0.6521 209.7351,-10.4868 32.2594,-4.5778 95.1298,-22.4716 95.1298,-22.4716 l 0,0"
         style="fill:none;stroke:#000000;stroke-width:0.80000001px;stroke-linecap:butt;stroke-linejoin:miter;stroke-opacity:1"
         sodipodi:nodetypes="csscc" /></g><text
       xml:space="preserve"
       style="font-size:32px;font-style:normal;font-weight:normal;line-height:125%;letter-spacing:0px;word-spacing:0px;fill:#000000;fill-opacity:1;stroke:none;font-family:Sans"
       x="7208.3584"
       y="-6900.9956"
       id="text5130"
       sodipodi:linespacing="125%"
       transform="scale(1,-1)"><tspan
         sodipodi:role="line"
         id="tspan5132"
         x="7208.3584"
         y="-6900.9956"
         style="font-size:9.60000038px">Dunaj</tspan></text>
</g></svg>