<?xml version="1.0" encoding="UTF-8" standalone="no"?>
<!-- Created with Inkscape (http://www.inkscape.org/) -->

<svg
   xmlns:dc="http://purl.org/dc/elements/1.1/"
   xmlns:cc="http://creativecommons.org/ns#"
   xmlns:rdf="http://www.w3.org/1999/02/22-rdf-syntax-ns#"
   xmlns:svg="http://www.w3.org/2000/svg"
   xmlns="http://www.w3.org/2000/svg"
   xmlns:sodipodi="http://sodipodi.sourceforge.net/DTD/sodipodi-0.dtd"
   xmlns:inkscape="http://www.inkscape.org/namespaces/inkscape"
   id="svg3117"
   version="1.1"
   inkscape:version="0.48.1 "
   width="766.25"
   height="768.75"
   xml:space="preserve"
   sodipodi:docname="parking2.pdf"><metadata
     id="metadata3123"><rdf:RDF><cc:Work
         rdf:about=""><dc:format>image/svg+xml</dc:format><dc:type
           rdf:resource="http://purl.org/dc/dcmitype/StillImage" /><dc:title></dc:title></cc:Work></rdf:RDF></metadata><defs
     id="defs3121" /><sodipodi:namedview
     pagecolor="#ffffff"
     bordercolor="#666666"
     borderopacity="1"
     objecttolerance="10"
     gridtolerance="10"
     guidetolerance="10"
     inkscape:pageopacity="0"
     inkscape:pageshadow="2"
     inkscape:window-width="640"
     inkscape:window-height="480"
     id="namedview3119"
     showgrid="false"
     inkscape:zoom="0.37853659"
     inkscape:cx="383.125"
     inkscape:cy="384.375"
     inkscape:window-x="532"
     inkscape:window-y="93"
     inkscape:window-maximized="0"
     inkscape:current-layer="g3125" /><g
     id="g3125"
     inkscape:groupmode="layer"
     inkscape:label="parking2"
     transform="matrix(1.25,0,0,-1.25,0,768.75)"><g
       id="g3127"
       transform="scale(0.24,0.24)"><path
         d="m 345.25,2483.25 c -172.73,0.18 -269.5469,-88.87 -270,-271 l 0,-1875 c 0.4531,-170.496 87.5,-259.6016 260,-260 l 1883,0 c 172.12,0.3984 259.3,85.066 259,260 l 0,1875 c 0.3,177.69 -86.88,271.18 -264,271 0,0 -1869.098,0.77 -1868,0"
         style="fill:#000000;fill-opacity:1;fill-rule:nonzero;stroke:none"
         id="path3129" /><path
         d="m 345.25,2483.25 c -172.73,0.18 -269.5469,-88.87 -270,-271 l 0,-1875 c 0.4531,-170.496 87.5,-259.6016 260,-260 l 1883,0 c 172.12,0.3984 259.3,85.066 259,260 l 0,1875 c 0.3,177.69 -86.88,271.18 -264,271 0,0 -1869.098,0.77 -1868,0 z"
         style="fill:none;stroke:#ffffff;stroke-opacity:1;stroke-width:14.2;stroke-linecap:butt;stroke-linejoin:miter;stroke-miterlimit:10;stroke-dasharray:none"
         id="path3131" /><path
         d="m 737.25,2113.25 694,0 c 303.43,0.06 527.08,-271.51 527,-551 0.08,-314.33 -266.01,-549.12 -542,-549 l -364,0 0,-537 -315,0 0,1637"
         style="fill:#ffffff;fill-opacity:1;fill-rule:nonzero;stroke:none"
         id="path3133" /><path
         d="m 1056.25,1810.25 359,0 c 115.75,-0.46 232.67,-108.14 233,-252 -0.33,-143.68 -109.26,-243.51 -237,-244 l -355,0 0,496"
         style="fill:#000000;fill-opacity:1;fill-rule:nonzero;stroke:none"
         id="path3135" /></g></g></svg>